<svg xmlns="http://www.w3.org/2000/svg" viewBox="0 0 100 107.88"><defs><style>.cls-1{fill:#002576;}.cls-2{fill:#21b0ff;}.cls-3{fill:#f6e200;}</style></defs><path class="cls-1" d="M15.18,98.56a6.57,6.57,0,0,0-2.73-1.63,5.23,5.23,0,0,0,2.06-1.55,4.08,4.08,0,0,0,.82-2.64v0A4.4,4.4,0,0,0,15,91a4.27,4.27,0,0,0-.89-1.32A5.43,5.43,0,0,0,12,88.39,9.34,9.34,0,0,0,9,88H.9a.9.9,0,0,0-.9.9v17a.89.89,0,0,0,.9.89H9.08a8.74,8.74,0,0,0,5.24-1.36,4.49,4.49,0,0,0,1.86-3.82v0a4.11,4.11,0,0,0-1-3M5.67,95.45a.59.59,0,0,1-.6-.6v-2.1a.6.6,0,0,1,.6-.6H7.85a3,3,0,0,1,1.76.42,1.35,1.35,0,0,1,.6,1.19v.06a1.36,1.36,0,0,1-.63,1.23,3.44,3.44,0,0,1-1.84.4Zm0,7.12a.6.6,0,0,1-.6-.6V99.7a.59.59,0,0,1,.6-.59H8.44a3.31,3.31,0,0,1,1.93.45A1.47,1.47,0,0,1,11,100.8v0a1.43,1.43,0,0,1-.64,1.27,3.2,3.2,0,0,1-1.85.45Z"/><path class="cls-1" d="M21.29,88.86a.9.9,0,0,1,.89-.9h3.41a.91.91,0,0,1,.9.9v12.43a.89.89,0,0,0,.89.9h9a.9.9,0,0,1,.89.9v2.77a.89.89,0,0,1-.89.89H22.18a.89.89,0,0,1-.89-.89Z"/><path class="cls-1" d="M80.07,102.37l-2.45-1.75a1,1,0,0,0-1.31.13L76,101a6.42,6.42,0,0,1-.94.73,4,4,0,0,1-1.1.47,5,5,0,0,1-1.32.16,4.18,4.18,0,0,1-1.82-.39,4.29,4.29,0,0,1-1.4-1.06,4.78,4.78,0,0,1-.93-1.6,5.78,5.78,0,0,1-.33-2v0a5.69,5.69,0,0,1,.33-1.94,4.78,4.78,0,0,1,.93-1.58,4.29,4.29,0,0,1,1.4-1.06,4.18,4.18,0,0,1,1.82-.39,4.34,4.34,0,0,1,2.33.59,6,6,0,0,1,1.15.95,1,1,0,0,0,1.32.11L80,92.05a.88.88,0,0,0,.15-1.25,9.86,9.86,0,0,0-.85-.88,8.52,8.52,0,0,0-1.77-1.24,9,9,0,0,0-2.16-.81,11.14,11.14,0,0,0-2.62-.28,10.27,10.27,0,0,0-4,.75,9.33,9.33,0,0,0-3.12,2.08,9.87,9.87,0,0,0-2.82,6.94v0a9.74,9.74,0,0,0,.77,3.88,9.89,9.89,0,0,0,2.06,3.09,9.19,9.19,0,0,0,3.07,2,9.93,9.93,0,0,0,3.78.72,11.4,11.4,0,0,0,2.8-.32,9.25,9.25,0,0,0,2.25-.88,8.39,8.39,0,0,0,1.8-1.35,11.66,11.66,0,0,0,.9-1,.84.84,0,0,0-.17-1.22"/><path class="cls-1" d="M92.7,107.08a13.37,13.37,0,0,1-4.61-.79,11.66,11.66,0,0,1-2.27-1.23l-.89-.59a.84.84,0,0,1-.14-1.21l1.68-2.1c.31-.38.76-.52,1-.32l.23.16a8.73,8.73,0,0,0,5.17,1.73,3,3,0,0,0,1.54-.33,1.08,1.08,0,0,0,.52-1s0-.22,0-.42l-.09-.15a1.26,1.26,0,0,0-.47-.44,4.1,4.1,0,0,0-.93-.42c-.39-.13-.89-.27-1.51-.42-1-.23-1.86-.48-2.68-.76a8.07,8.07,0,0,1-2.16-1.07,4.82,4.82,0,0,1-1.44-1.64,5,5,0,0,1-.53-2.42s0-.46.08-1a5.75,5.75,0,0,1,.4-1.52A5.2,5.2,0,0,1,87,89.33a6.48,6.48,0,0,1,2.2-1.25,9.09,9.09,0,0,1,2.92-.44,12.59,12.59,0,0,1,4.14.63,13.14,13.14,0,0,1,2.57,1.38A.89.89,0,0,1,99,90.89L97.5,93.11a.78.78,0,0,1-1,.34l-.28-.17a9.8,9.8,0,0,0-1.7-.82A7.5,7.5,0,0,0,92,92a2.13,2.13,0,0,0-1.35.35,1,1,0,0,0-.45.85s0,.24,0,.46l.1.16a1.27,1.27,0,0,0,.49.45,6.17,6.17,0,0,0,1,.4c.41.13.92.27,1.54.41a21.78,21.78,0,0,1,2.8.82A8,8,0,0,1,98.19,97a4.57,4.57,0,0,1,1.35,1.62,5.28,5.28,0,0,1,.46,2.27s0,.45-.09.94a6,6,0,0,1-.44,1.68A5.44,5.44,0,0,1,98,105.45a6.32,6.32,0,0,1-2.3,1.21,10,10,0,0,1-3,.42"/><path class="cls-1" d="M49.25,87.23A10.33,10.33,0,1,0,59.56,97.55,10.32,10.32,0,0,0,49.25,87.23M54,99.46a1.64,1.64,0,0,1-.73,1.27L50,102.64a1.63,1.63,0,0,1-1.46,0l-3.3-1.91a1.64,1.64,0,0,1-.73-1.27V95.65a1.64,1.64,0,0,1,.73-1.28l3.3-1.9a1.57,1.57,0,0,1,1.46,0l3.3,1.9A1.64,1.64,0,0,1,54,95.65Z"/><path class="cls-2" d="M82.5,17.13,52,.47a4.43,4.43,0,0,0-4,0L17.48,17.13a4.44,4.44,0,0,0-2,3.45c0-1.26.9-1.78,2-1.15L48,37.05a4.42,4.42,0,0,1,2,3.45V76.56c0,1.26-.9,1.78-2,1.15a4.43,4.43,0,0,0,4,0L82.5,60.09a4.42,4.42,0,0,0,2-3.45V20.58a4.44,4.44,0,0,0-2-3.45"/><path class="cls-1" d="M50,76.56V40.5a4.42,4.42,0,0,0-2-3.45L17.48,19.43c-1.09-.63-2-.11-2,1.15V56.64a4.42,4.42,0,0,0,2,3.45L48,77.71c1.09.63,2,.11,2-1.15"/><path class="cls-1" d="M34.16,19.38c-3.88,0-7-1.83-7-4.09V18.8c0,6.31,14,6.51,14,0V15.29c0,2.26-3.14,4.09-7,4.09"/><path class="cls-1" d="M67.55,19.38c-3.88,0-7-1.83-7-4.09V18.8c0,6.31,14,6.51,14,0V15.29c0,2.26-3.14,4.09-7,4.09"/><path class="cls-1" d="M50.85,10.28c-3.87,0-7-1.84-7-4.1V9.7c0,6.31,14.05,6.51,14.05,0V6.18c0,2.26-3.15,4.1-7,4.1"/><path class="cls-1" d="M50.85,28.83c-3.87,0-7-1.83-7-4.1V27.9c0,6.32,14.05,6.52,14.05,0V24.73c0,2.27-3.15,4.1-7,4.1"/><path class="cls-1" d="M67.81,37.76c-7.37,4.47-13.35,15.57-13.35,24.79a17.64,17.64,0,0,0,1.18,5.84,1.25,1.25,0,0,0,1.89.45L78.1,56.38A5.24,5.24,0,0,0,80,53.65a34.86,34.86,0,0,0,1.18-7.27c0-9.22-6-13.08-13.35-8.62m-1,4.48a2.49,2.49,0,0,1,1-1.91c.57-.34,1,0,1,.66v2.58a2.42,2.42,0,0,1-1,1.9c-.56.35-1,.05-1-.66ZM60.31,63.41l-2,2c-.54.54-1.12.52-1.29,0a2.3,2.3,0,0,1,.66-2l2-2c.54-.55,1.12-.53,1.29,0a2.3,2.3,0,0,1-.66,2M61,55.83a2.12,2.12,0,0,1-1.29,1.61l-2,.39c-.54.1-.84-.44-.66-1.22A2.12,2.12,0,0,1,58.36,55l2-.39c.54-.11.84.44.66,1.22m2.62-6.08c-.46.69-1.1,1-1.44.58L60.94,49a1.81,1.81,0,0,1,.23-1.94c.46-.69,1.1-1,1.44-.58l1.2,1.35a1.77,1.77,0,0,1-.22,1.93M72,44.63c-.46-.14-.56-.88-.23-1.65L73,40.17c.33-.78,1-1.3,1.43-1.16s.56.88.23,1.66l-1.21,2.81c-.33.78-1,1.29-1.43,1.15m6.52,7.7a2.15,2.15,0,0,1-1.3,1.61l-2,.39c-.54.1-.84-.44-.66-1.22a2.12,2.12,0,0,1,1.29-1.61l2-.39c.54-.11.83.44.66,1.22m-.66-6.72-2,2c-.54.55-1.12.53-1.29,0a2.3,2.3,0,0,1,.66-2l2-2c.54-.54,1.12-.52,1.3.05a2.31,2.31,0,0,1-.66,2"/><path class="cls-3" d="M69.48,57.48a4.47,4.47,0,0,1-.82,1.78,2.52,2.52,0,0,1-1.3,1,.88.88,0,0,1-1-.41,2.21,2.21,0,0,1-.15-1.54c.4-1.92,3.25-9.41,3.25-9.41a.6.6,0,0,1,.35-.39c.16,0,.21.11.21.25s-.13,6.84-.52,8.75"/></svg>
