<svg xmlns="http://www.w3.org/2000/svg" viewBox="0 0 80 80"><defs><style>.cls-2{fill:#002576}</style></defs><g id="r_2" data-name="r 2"><g id="r_1-2" data-name="r 1"><path d="M72.51 18 42 1.38a4.41 4.41 0 0 0-4 0L7.49 18a4.45 4.45 0 0 0-2 3.45c0-1.26.9-1.78 2-1.15L38 38a4.42 4.42 0 0 1 2 3.45v36.02c0 1.26-.9 1.78-2 1.15a4.41 4.41 0 0 0 4 0L72.51 61a4.42 4.42 0 0 0 2-3.45V21.49a4.45 4.45 0 0 0-2-3.45" style="fill:#21b0ff"/><path class="cls-2" d="M40 77.47V41.41A4.42 4.42 0 0 0 38 38L7.49 20.34c-1.09-.63-2-.11-2 1.15v36.06a4.42 4.42 0 0 0 2 3.45L38 78.62c1.09.63 2 .11 2-1.15M24.17 20.29c-3.88 0-7-1.83-7-4.09v3.51c0 6.31 14 6.51 14 0V16.2c0 2.26-3.14 4.09-7 4.09M57.56 20.29c-3.88 0-7-1.83-7-4.09v3.51c0 6.31 14 6.51 14 0V16.2c0 2.26-3.14 4.09-7 4.09M40.86 11.19c-3.87 0-7-1.84-7-4.1v3.52c0 6.31 14 6.51 14 0V7.09c0 2.26-3.15 4.1-7 4.1M40.86 29.74c-3.87 0-7-1.83-7-4.1v3.17c0 6.32 14 6.52 14 0v-3.17c0 2.27-3.15 4.1-7 4.1M57.82 38.67c-7.37 4.47-13.35 15.57-13.35 24.79a17.72 17.72 0 0 0 1.18 5.84 1.25 1.25 0 0 0 1.67.59 1.64 1.64 0 0 0 .22-.14l20.57-12.46A5.27 5.27 0 0 0 70 54.56a35 35 0 0 0 1.18-7.27c0-9.22-6-13.08-13.35-8.62m-1 4.48a2.48 2.48 0 0 1 1-1.91c.57-.34 1 0 1 .66v2.58a2.43 2.43 0 0 1-1 1.9c-.56.35-1 0-1-.66Zm-6.51 21.17-2 2c-.54.54-1.12.52-1.29 0a2.29 2.29 0 0 1 .66-2l2-2c.54-.55 1.12-.53 1.29 0a2.29 2.29 0 0 1-.66 2m.68-7.58a2.13 2.13 0 0 1-1.29 1.61l-2 .39c-.54.1-.84-.44-.66-1.22a2.12 2.12 0 0 1 1.31-1.61l2-.39c.54-.11.84.44.66 1.22m2.62-6.08c-.46.69-1.1 1-1.44.58L51 49.91a1.81 1.81 0 0 1 .18-1.91c.46-.69 1.1-1 1.44-.58l1.2 1.35a1.77 1.77 0 0 1-.22 1.93m8.4-5.16c-.46-.14-.56-.88-.23-1.65L63 41.08c.33-.78 1-1.3 1.43-1.16s.56.88.23 1.66l-1.21 2.81c-.33.78-1 1.29-1.43 1.15m6.52 7.7a2.16 2.16 0 0 1-1.3 1.61l-2 .39c-.54.1-.84-.44-.66-1.22a2.13 2.13 0 0 1 1.29-1.61l2-.39c.54-.11.83.44.66 1.22m-.66-6.72-2 2c-.54.55-1.12.53-1.29 0a2.29 2.29 0 0 1 .66-2l2-2c.54-.54 1.12-.52 1.3 0a2.32 2.32 0 0 1-.66 2"/><path d="M59.49 58.39a4.52 4.52 0 0 1-.82 1.78 2.53 2.53 0 0 1-1.3 1 .88.88 0 0 1-1-.41 2.22 2.22 0 0 1-.15-1.54c.4-1.92 3.25-9.41 3.25-9.41a.59.59 0 0 1 .35-.39c.16 0 .21.11.21.25s-.13 6.84-.52 8.75" style="fill:#f6e200"/><path style="fill:none" d="M80 80 .27 79.72 0 0l79.73.28L80 80z"/></g></g></svg>
