<svg xmlns="http://www.w3.org/2000/svg" viewBox="0 0 305.63 70"><defs><style>.cls-1{fill:#002576;}.cls-2{fill:#21b0ff;}.cls-3{fill:#f6e200;}</style></defs><path class="cls-1" d="M110.94,36.94a12.5,12.5,0,0,0-5.3-3.14,10.34,10.34,0,0,0,4-3,7.91,7.91,0,0,0,1.58-5.12v-.11a8.31,8.31,0,0,0-.63-3.33,7.94,7.94,0,0,0-1.71-2.55,10.35,10.35,0,0,0-4.05-2.44A18.16,18.16,0,0,0,99,16.42H83.24a1.75,1.75,0,0,0-1.74,1.74V51.09a1.74,1.74,0,0,0,1.74,1.74H99.11q6.56,0,10.17-2.65a8.62,8.62,0,0,0,3.62-7.38v-.11a8,8,0,0,0-2-5.75m-18.45-6a1.16,1.16,0,0,1-1.16-1.16V25.7a1.16,1.16,0,0,1,1.16-1.16h4.23a5.93,5.93,0,0,1,3.43.81,2.64,2.64,0,0,1,1.15,2.31v.1a2.66,2.66,0,0,1-1.22,2.4,6.67,6.67,0,0,1-3.56.78Zm0,13.78a1.16,1.16,0,0,1-1.16-1.16V39.17A1.16,1.16,0,0,1,92.49,38h5.38a6.32,6.32,0,0,1,3.74.89,2.81,2.81,0,0,1,1.2,2.39v.1a2.81,2.81,0,0,1-1.25,2.47,6.31,6.31,0,0,1-3.58.86Z"/><path class="cls-1" d="M129.58,18.16a1.75,1.75,0,0,1,1.74-1.74h6.61a1.75,1.75,0,0,1,1.74,1.74v24.1A1.74,1.74,0,0,0,141.41,44h17.41a1.75,1.75,0,0,1,1.74,1.74v5.36a1.74,1.74,0,0,1-1.74,1.74h-27.5a1.74,1.74,0,0,1-1.74-1.74Z"/><path class="cls-1" d="M258.21,44.34l-4.76-3.4a2,2,0,0,0-2.53.25l-.58.54a10.91,10.91,0,0,1-1.82,1.4,7.53,7.53,0,0,1-2.13.91,9.88,9.88,0,0,1-2.57.32,8,8,0,0,1-3.52-.76,8.24,8.24,0,0,1-2.72-2.06,9.25,9.25,0,0,1-1.8-3.09,11.19,11.19,0,0,1-.65-3.82v-.1a10.87,10.87,0,0,1,.65-3.75,9.46,9.46,0,0,1,1.8-3.07,8.35,8.35,0,0,1,2.72-2.05,8.14,8.14,0,0,1,3.52-.76,8.53,8.53,0,0,1,4.52,1.15,12,12,0,0,1,2.25,1.84,1.94,1.94,0,0,0,2.56.21L258,24.35a1.7,1.7,0,0,0,.29-2.42,17.19,17.19,0,0,0-1.65-1.71,16.7,16.7,0,0,0-3.42-2.41A17.28,17.28,0,0,0,249,16.25a21.73,21.73,0,0,0-5.1-.55,19.63,19.63,0,0,0-7.67,1.46,18.22,18.22,0,0,0-6.06,4,18.88,18.88,0,0,0-4,6,19.12,19.12,0,0,0-1.45,7.41v.11a18.92,18.92,0,0,0,5.48,13.49,18.1,18.1,0,0,0,6,3.93,19.28,19.28,0,0,0,7.33,1.4,22.11,22.11,0,0,0,5.44-.62,18.35,18.35,0,0,0,4.37-1.72,16.12,16.12,0,0,0,3.48-2.6,24.7,24.7,0,0,0,1.76-1.92,1.63,1.63,0,0,0-.34-2.36"/><path class="cls-1" d="M291.47,53.45a26.31,26.31,0,0,1-8.94-1.51,23.06,23.06,0,0,1-4.4-2.4l-1.73-1.13a1.65,1.65,0,0,1-.28-2.36l3.26-4c.59-.74,1.47-1,2-.63l.44.32a17,17,0,0,0,10,3.34,5.66,5.66,0,0,0,3-.65,2.05,2.05,0,0,0,1-1.84s0-.43-.08-.82l-.17-.29a2.53,2.53,0,0,0-.93-.86,9.16,9.16,0,0,0-1.8-.8,27.63,27.63,0,0,0-2.93-.81q-2.81-.68-5.2-1.48a15.55,15.55,0,0,1-4.18-2.08,9.2,9.2,0,0,1-2.81-3.17,9.8,9.8,0,0,1-1-4.69c0-.06.07-.88.16-1.84a10.63,10.63,0,0,1,.77-2.94,10.19,10.19,0,0,1,2.7-3.69,12.48,12.48,0,0,1,4.28-2.41,17.41,17.41,0,0,1,5.65-.86,24.34,24.34,0,0,1,8,1.23,24.83,24.83,0,0,1,5,2.67,1.72,1.72,0,0,1,.42,2.39l-2.92,4.31a1.53,1.53,0,0,1-2.05.65l-.55-.33a18.34,18.34,0,0,0-3.29-1.58,14.35,14.35,0,0,0-4.88-.91,4.25,4.25,0,0,0-2.63.67,2,2,0,0,0-.88,1.66c0,.06,0,.46.09.89l.18.31a2.65,2.65,0,0,0,1,.86,11.25,11.25,0,0,0,1.85.77c.78.27,1.78.53,3,.81A42.58,42.58,0,0,1,298,31.78,16.1,16.1,0,0,1,302.13,34a8.72,8.72,0,0,1,2.6,3.14,9.91,9.91,0,0,1,.9,4.39s-.07.88-.16,1.83a11.52,11.52,0,0,1-.87,3.26,10.51,10.51,0,0,1-2.87,3.7,12.64,12.64,0,0,1-4.46,2.34,19.46,19.46,0,0,1-5.8.8"/><path class="cls-1" d="M191.94,15a20,20,0,1,0,20,20,20,20,0,0,0-20-20m9.25,23.69a3.16,3.16,0,0,1-1.42,2.47l-6.4,3.69a3.18,3.18,0,0,1-2.85,0l-6.39-3.69a3.14,3.14,0,0,1-1.43-2.47V31.31a3.16,3.16,0,0,1,1.43-2.47l6.39-3.69a3.18,3.18,0,0,1,2.85,0l6.4,3.69a3.17,3.17,0,0,1,1.42,2.47Z"/><path class="cls-2" d="M60,15.34,32.67.42a4,4,0,0,0-3.57,0L1.78,15.34A3.93,3.93,0,0,0,0,18.42c0-1.13.8-1.59,1.78-1L29.1,33.17a4,4,0,0,1,1.79,3.09V68.55c0,1.13-.81,1.59-1.79,1a3.94,3.94,0,0,0,3.57,0L60,53.8a4,4,0,0,0,1.79-3.09V18.43A4,4,0,0,0,60,15.34"/><path class="cls-1" d="M30.89,68.55V36.26a4,4,0,0,0-1.79-3.09L1.78,17.39c-1-.56-1.78-.1-1.78,1V50.71A4,4,0,0,0,1.78,53.8L29.1,69.57c1,.57,1.79.11,1.79-1"/><path class="cls-1" d="M16.71,17.35c-3.47,0-6.28-1.64-6.28-3.66v3.14c0,5.65,12.57,5.83,12.57,0V13.69c0,2-2.81,3.66-6.29,3.66"/><path class="cls-1" d="M46.61,17.35c-3.47,0-6.29-1.64-6.29-3.66v3.14c0,5.65,12.58,5.84,12.58,0V13.69c0,2-2.82,3.66-6.29,3.66"/><path class="cls-1" d="M31.66,9.2c-3.47,0-6.29-1.64-6.29-3.67V8.68c0,5.65,12.58,5.83,12.58,0V5.53c0,2-2.82,3.67-6.29,3.67"/><path class="cls-1" d="M31.66,25.81c-3.47,0-6.29-1.64-6.29-3.66V25c0,5.65,12.58,5.84,12.58,0V22.15c0,2-2.82,3.66-6.29,3.66"/><path class="cls-1" d="M46.84,33.81c-6.6,4-12,13.93-12,22.19a15.89,15.89,0,0,0,1,5.23,1.11,1.11,0,0,0,1.69.4L56.05,50.48A4.62,4.62,0,0,0,57.74,48a31.12,31.12,0,0,0,1.06-6.5c0-8.26-5.36-11.72-12-7.72m-.92,4a2.22,2.22,0,0,1,.92-1.71c.51-.31.92,0,.92.59V39a2.19,2.19,0,0,1-.92,1.71c-.5.31-.92,0-.92-.59Zm-5.79,19-1.75,1.77c-.48.49-1,.47-1.16,0a2.08,2.08,0,0,1,.59-1.81l1.75-1.76c.48-.49,1-.48,1.16,0a2.07,2.07,0,0,1-.59,1.81M40.72,50a1.92,1.92,0,0,1-1.16,1.45l-1.75.34c-.48.1-.75-.39-.59-1.09a1.92,1.92,0,0,1,1.16-1.44l1.75-.35c.48-.09.75.39.59,1.09m2.34-5.44c-.41.62-1,.86-1.29.53l-1.08-1.21a1.6,1.6,0,0,1,.21-1.73c.41-.62,1-.86,1.28-.53l1.08,1.21a1.6,1.6,0,0,1-.2,1.73M50.63,40c-.41-.12-.51-.79-.21-1.48L51.5,36c.3-.69.88-1.16,1.29-1s.5.79.2,1.48l-1.08,2.52c-.3.69-.87,1.15-1.28,1m5.83,6.89a1.86,1.86,0,0,1-1.16,1.44l-1.75.35c-.48.1-.74-.39-.59-1.09a1.9,1.9,0,0,1,1.16-1.44l1.75-.35c.48-.1.75.39.59,1.09m-.59-6-1.75,1.77c-.48.49-1,.47-1.16,0a2.1,2.1,0,0,1,.59-1.81L55.3,39c.49-.49,1-.47,1.16,0a2.07,2.07,0,0,1-.59,1.81"/><path class="cls-3" d="M48.34,51.47a3.94,3.94,0,0,1-.74,1.59,2.24,2.24,0,0,1-1.16.86.79.79,0,0,1-.92-.36,2,2,0,0,1-.13-1.38c.36-1.72,2.91-8.43,2.91-8.43a.55.55,0,0,1,.31-.35c.15,0,.19.1.19.23s-.11,6.12-.46,7.84"/></svg>
